# xmcd
#
# Track frame offsets:
#	183
#	14438
#	27780
#	41665
#	52738
#	64633
#	76480
#	89455
#	102375
#	116463
#	129133
#	140918
#	154043
#	166595
#	180000
#	191660
#	205025
#	217545
#	230745
#	243180
#	256810
#	270138
#	283895
#	297915
#	311360
#
# Disc length: 4329 seconds
#
# Revision: 1
# Processed by: cddbd v1.5.2PL0 Copyright (c) Steve Scherf et al.
# Submitted via: audiograbber 1.83.01
#
DISCID=4310e719
DTITLE=Lovie Austin - Lovie Austin 1924-1926
DYEAR=1900
DGENRE=
TTITLE0=Jelly RollBlues
TTITLE1=Skeeg-A-Lee Blues
TTITLE2=I'm Three Times Seven
TTITLE3=Steppin' On The Blues
TTITLE4=Travelling Blues
TTITLE5=Charleston Mad
TTITLE6=Charleston, South Carolina
TTITLE7=Heebie Jeebies
TTITLE8=Peepin'  Blues
TTITLE9=Mojo Blues
TTITLE10=Don't Shake It No More
TTITLE11=Rampart Street Blues
TTITLE12=Too Sweet For Words
TTITLE13=Jackass Blues
TTITLE14=Frog Tongue Stomp
TTITLE15=Who's Gonna Do Your Loving (When Your Good man's Gone Away)
TTITLE16=Nobody Else Will Do
TTITLE17=Sunday Morning Blues
TTITLE18=You Don't Mean Me No Good
TTITLE19=Out Bound Train Blues
TTITLE20=Walk Easy 'Cause My Papa's Here
TTITLE21=Chicago Mess Around
TTITLE22=Gallion Stomp
TTITLE23=In The Alley Blues
TTITLE24=Marry Maker's Twine
EXTD=
EXTT0=
EXTT1=
EXTT2=
EXTT3=
EXTT4=
EXTT5=
EXTT6=
EXTT7=
EXTT8=
EXTT9=
EXTT10=
EXTT11=
EXTT12=
EXTT13=
EXTT14=
EXTT15=
EXTT16=
EXTT17=
EXTT18=
EXTT19=
EXTT20=
EXTT21=
EXTT22=
EXTT23=
EXTT24=
PLAYORDER=
